<svg width="72" height="32" viewBox="0 0 72 32" fill="none" xmlns="http://www.w3.org/2000/svg">
<mask id="mask0_116_49" style="mask-type:luminance" maskUnits="userSpaceOnUse" x="0" y="0" width="72" height="32">
<path d="M72 0H0V32H72V0Z" fill="white"/>
</mask>
<g mask="url(#mask0_116_49)">
<path d="M51.8293 10.44C50.9564 9.54 50.4248 8.344 50.3356 7.076C50.1998 5.036 49.6295 3.388 48.4462 2.44C43.4918 -1.488 36.613 12.224 26.13 4.736C37.0902 9.996 40.2095 -0.492001 47.3017 0.111999C51.4879 0.471999 52.4462 4.952 51.8293 10.44Z" fill="url(#paint0_linear_116_49)"/>
<path d="M23.1387 2.468C22.4132 3.368 22.0097 4.648 21.87 6.164C21.7342 7.58 21.1523 8.912 20.1785 9.92C20.066 8.944 20.0078 8.012 20.0078 7.12C20.0039 3.084 21.257 0.155997 24.6596 0.011997C29.7265 -0.196003 30.1533 4.76 36.904 3.268C30.9331 7.828 25.9787 -1.04 23.1426 2.468H23.1387Z" fill="url(#paint1_linear_116_49)"/>
<path d="M39.1232 30.708C39.0301 30.592 36.4306 27.248 34.4132 28.044C32.485 28.804 31.1969 31.784 29.1756 32C27.9884 32.124 25.4433 27.704 23.3327 22.116C24.0582 22.464 24.7178 22.936 25.2881 23.504C25.8545 24.072 26.3317 24.74 26.6925 25.48C27.7207 27.568 28.6906 29.036 29.3346 29.404C30.4442 30.044 31.8254 26.684 34.8788 26.528C37.711 26.384 39.0844 30.576 39.1232 30.708Z" fill="url(#paint2_linear_116_49)"/>
<path d="M48.8691 22.18C46.7973 27.78 44.2522 32.172 43.0611 31.908C38.4985 30.884 39.6974 22.62 31.5926 26.48C38.7119 19.888 40.6751 30.116 43.0844 29.856C43.5887 29.8 44.7139 27.948 45.936 25.212C46.5335 23.876 47.5693 22.808 48.8652 22.184H48.8691V22.18Z" fill="url(#paint3_linear_116_49)"/>
<path d="M7.22406 15.816H0V16.184H7.22406V15.816Z" fill="#D6A770"/>
<path d="M10.7701 12.884V13.212H10.4753C10.3433 13.212 10.2464 13.212 10.161 13.236C10.1532 13.236 10.1416 13.236 10.1377 13.24V18.74H10.2037C10.3821 18.76 10.4714 18.764 10.6576 18.764H10.7624V19.092H10.6498C10.2774 19.084 10.0446 19.084 9.6644 19.084C9.28418 19.084 9.04752 19.084 8.67507 19.092H8.56255V18.768H8.66731C8.85741 18.768 8.94277 18.764 9.12123 18.748H9.17943C9.17943 18.748 9.18331 18.744 9.18719 18.744V13.244H9.16779C9.03588 13.22 8.92725 13.22 8.79146 13.22H8.55479V12.892H8.66731C9.03976 12.9 9.27254 12.9 9.65664 12.9C10.0407 12.9 10.2735 12.9 10.6421 12.892H10.7546L10.7624 12.884H10.7701Z" fill="#D6A770"/>
<path d="M17.8739 12.884V13.212H17.7692C17.5713 13.212 17.4627 13.212 17.3075 13.236H17.2881C17.2648 13.776 17.2648 14.312 17.2648 15.284V19.3H17.0824L17.0475 19.26L13.0514 14.08V16.684C13.0514 17.66 13.0514 18.192 13.0747 18.732H13.0902L13.2027 18.74C13.3269 18.748 13.3967 18.76 13.5558 18.76H13.6605V19.088H13.548C13.1833 19.08 13.1135 19.08 12.8691 19.08C12.6246 19.08 12.5509 19.08 12.1901 19.088H12.0776V18.764H12.1823C12.3414 18.764 12.4035 18.76 12.5354 18.744L12.6479 18.736H12.6634C12.6789 18.236 12.6867 17.72 12.6867 16.688V13.724C12.6867 13.68 12.6324 13.524 12.5276 13.388C12.4462 13.28 12.1552 13.212 11.9302 13.212H11.8254V12.884H11.9379C12.3026 12.892 12.5936 12.892 12.966 12.892H13.3734L13.4083 12.932L16.9079 17.5V15.284C16.9079 14.256 16.9001 13.736 16.8846 13.236H16.8613C16.7216 13.212 16.6285 13.212 16.4733 13.212H16.2987V12.884H16.4112C16.7759 12.892 16.8458 12.892 17.0902 12.892C17.3346 12.892 17.4083 12.892 17.7692 12.884H17.8739Z" fill="#D6A770"/>
<path d="M24.7682 12.884V13.212H24.6634C24.5044 13.212 24.4345 13.216 24.3104 13.228L24.2056 13.236H24.1862C24.1629 13.776 24.1629 14.312 24.1629 15.284V19.3H23.9806L23.9457 19.26L19.9496 14.08V16.684C19.9496 17.66 19.9496 18.192 19.9728 18.732H19.9884C20.0349 18.732 20.0737 18.736 20.1086 18.74C20.2289 18.748 20.291 18.756 20.4462 18.756H20.5509V19.084H20.4384C20.2677 19.08 20.0233 19.076 19.7633 19.076C19.5034 19.076 19.259 19.076 19.0844 19.08H18.9719V18.756H19.0766C19.2357 18.756 19.3055 18.752 19.4297 18.736L19.5344 18.728H19.5538C19.5693 18.228 19.5771 17.708 19.5771 16.68V13.716C19.5771 13.668 19.5344 13.5 19.4258 13.388C19.3521 13.308 19.2551 13.264 19.0999 13.228H19.0727C19.0107 13.208 18.9951 13.204 18.8206 13.204H18.7158V12.876H18.8283C19.193 12.884 19.484 12.884 19.8564 12.884H20.2638L20.2987 12.924L23.7982 17.492V15.276C23.7982 14.372 23.7944 13.816 23.775 13.228H23.7595L23.6469 13.22C23.5228 13.212 23.453 13.204 23.2939 13.204H23.1891V12.876H23.3016C23.6586 12.884 23.7362 12.884 23.9806 12.884C24.225 12.884 24.2987 12.884 24.6595 12.876H24.7721V12.884H24.7682Z" fill="#D6A770"/>
<path d="M28.8497 12.696C27.0883 12.696 25.711 14.14 25.711 15.984C25.711 17.828 26.999 19.204 28.8497 19.204C30.7003 19.204 32.0272 17.76 32.0272 15.916C32.0272 14.072 30.6887 12.696 28.8497 12.696ZM28.7721 13.044C30.1494 13.044 31.0029 14.208 31.0029 16.08C31.0029 17.416 30.3628 18.848 28.9583 18.848C27.5538 18.848 26.7469 17.66 26.7469 15.824C26.7469 14.444 27.4452 13.044 28.7721 13.044Z" fill="#D6A770"/>
<path d="M41.9864 12.884V13.212H41.8817C41.7226 13.212 41.6528 13.216 41.5286 13.228L41.4161 13.236C41.3695 13.24 41.3346 13.26 41.3114 13.296L38.9098 19.236L38.8826 19.304H38.7119L38.6848 19.236L37.323 15.868L35.9612 19.236L35.934 19.304H35.7633L35.7362 19.236L34.1416 15.308C33.8235 14.524 33.5635 13.904 33.3075 13.3C33.2945 13.2733 33.2635 13.2533 33.2144 13.24C33.1212 13.22 33.0553 13.216 32.9234 13.216H32.71V12.888H32.8225C32.9971 12.892 33.2454 12.896 33.5015 12.896C33.7575 12.896 34.0097 12.896 34.1804 12.892H34.2929V13.216H34.0524C33.9282 13.216 33.8506 13.216 33.7342 13.24C33.8157 13.508 33.9748 13.908 34.1222 14.264L34.1804 14.408L35.5577 17.852L37.3889 13.224C37.3346 13.216 37.2532 13.208 37.1523 13.208H36.8923V13.028L36.8652 12.892H37.9787C38.3511 12.892 38.5839 12.892 38.9447 12.884H39.0572V13.208H38.9525C38.7546 13.208 38.6421 13.208 38.4985 13.232C38.4248 13.248 38.4016 13.272 38.386 13.292L37.5247 15.396L38.5179 17.852L40.3453 13.232C40.3104 13.232 40.2871 13.228 40.2638 13.228C40.1436 13.22 40.0854 13.212 39.9302 13.212H39.8254V12.884H39.9379C40.1009 12.888 40.4811 12.892 40.9234 12.892C41.3657 12.892 41.742 12.892 41.9127 12.888H42.0136L41.9864 12.884Z" fill="#D6A770"/>
<path d="M48.8031 12.884V13.212H48.6984C48.5083 13.212 48.419 13.216 48.2444 13.232H48.1862C48.1862 13.232 48.1824 13.232 48.1746 13.236V18.736H48.2405C48.419 18.756 48.5083 18.76 48.6945 18.76H48.7992V19.088H48.6867C48.5121 19.084 48.1358 19.08 47.6974 19.08C47.259 19.08 46.8826 19.08 46.7081 19.084H46.5955V18.76H46.7003C46.8904 18.76 46.9796 18.756 47.1542 18.74H47.2124C47.2124 18.74 47.2163 18.736 47.2241 18.736V16.12C46.937 16.116 46.4132 16.112 45.8041 16.112C45.195 16.112 44.6712 16.112 44.3841 16.12V18.736H44.4501C44.6285 18.756 44.7178 18.76 44.904 18.76H45.0087V19.088H44.8962C44.7255 19.084 44.3453 19.08 43.9069 19.08C43.4685 19.08 43.0921 19.08 42.9214 19.084H42.8089V18.76H42.9137C43.1038 18.76 43.1891 18.756 43.3676 18.74H43.4258C43.4258 18.74 43.4297 18.736 43.4374 18.736V13.236H43.3715C43.193 13.216 43.1038 13.212 42.9176 13.212H42.8128V12.884H42.9253C43.096 12.888 43.4762 12.892 43.9108 12.892C44.3453 12.892 44.7255 12.892 44.9001 12.888H45.0126V13.212H44.9079C44.7178 13.212 44.6324 13.216 44.4539 13.232H44.3957C44.3957 13.232 44.3919 13.232 44.388 13.236V15.764C44.6751 15.768 45.1988 15.772 45.808 15.772C46.4171 15.772 46.9408 15.772 47.2279 15.764V13.236H47.162C46.9835 13.216 46.8943 13.212 46.7081 13.212H46.6033V12.884H46.7158C46.8904 12.888 47.2667 12.892 47.7051 12.892C48.1436 12.892 48.5199 12.892 48.6945 12.888H48.807L48.8031 12.884Z" fill="#D6A770"/>
<path d="M52.2289 12.884V13.212H52.1242C51.934 13.212 51.8487 13.216 51.6702 13.232H51.612C51.612 13.232 51.6081 13.232 51.6043 13.236V18.736H51.6702C51.8487 18.756 51.9379 18.76 52.1242 18.76H52.2289V19.088H52.1164C51.9457 19.084 51.5655 19.08 51.1271 19.08C50.6887 19.08 50.3123 19.08 50.1416 19.084H50.0291V18.76H50.1339C50.324 18.76 50.4093 18.756 50.5878 18.74H50.646C50.646 18.74 50.6499 18.736 50.6576 18.736V13.236H50.5917C50.4132 13.216 50.324 13.212 50.1377 13.212H50.033V12.884H50.1455C50.3162 12.888 50.6964 12.892 51.1309 12.892C51.5655 12.892 51.9457 12.892 52.1203 12.888H52.2328L52.2289 12.884Z" fill="#D6A770"/>
<path d="M58.324 12.96V13.008C58.289 13.356 58.2852 13.936 58.2852 14.248V14.356H58.0136L57.9981 14.268C57.9981 14.268 57.9437 13.952 57.9011 13.728C57.8623 13.528 57.7498 13.292 57.257 13.252C57.0243 13.232 56.7876 13.228 56.194 13.228H56.1901V18.736H56.2561C56.4345 18.756 56.5238 18.76 56.71 18.76H56.8147V19.088H56.7022C56.5276 19.084 56.1513 19.08 55.7129 19.08C55.2745 19.08 54.8982 19.08 54.7236 19.084H54.6111V18.76H54.7158C54.9059 18.76 54.9952 18.756 55.1697 18.74H55.2357V13.224H55.2318C54.6421 13.224 54.4016 13.232 54.1688 13.248C53.676 13.288 53.5635 13.524 53.5247 13.716C53.4821 13.94 53.4277 14.256 53.4277 14.256L53.4122 14.344H53.1406V14.236C53.1406 13.92 53.1406 13.34 53.1057 12.996V12.948L53.1911 12.86H53.2376C54.033 12.888 54.8826 12.888 55.709 12.888C56.5354 12.888 57.3851 12.888 58.1804 12.86H58.227L58.3123 12.948H58.2968L58.324 12.96Z" fill="#D6A770"/>
<path d="M63.4297 19.116H63.3133C62.8089 19.096 61.4743 19.088 60.4927 19.088C59.9146 19.088 59.4491 19.088 59.3133 19.092H59.2008V18.768H59.3055C59.4956 18.768 59.5849 18.764 59.7595 18.748H59.8177C59.8177 18.748 59.8215 18.744 59.8254 18.744V13.244H59.7633C59.5849 13.224 59.4956 13.22 59.3094 13.22H59.2047V12.892H59.3172C59.453 12.896 59.8991 12.896 60.4578 12.896C61.4083 12.896 62.6925 12.892 63.2008 12.872H63.3172V12.988C63.3172 12.988 63.2978 13.808 63.2978 14.256V14.364H62.9913V14.256C62.9913 14.1 62.9719 14.016 62.9447 13.888C62.9331 13.844 62.9253 13.792 62.9098 13.74C62.8555 13.476 62.5994 13.312 62.1882 13.276C61.9515 13.256 61.3579 13.24 60.7759 13.24H60.7721V15.896C61.195 15.896 61.7575 15.888 61.9903 15.876C62.2464 15.872 62.3084 15.796 62.4016 15.688L62.4132 15.68C62.4869 15.6 62.5296 15.436 62.5373 15.244V15.14H62.8555V15.26C62.8322 15.604 62.8322 15.76 62.8322 16.068C62.8322 16.376 62.8322 16.532 62.8516 16.884V17.004H62.5529L62.5412 16.904C62.5179 16.676 62.4636 16.56 62.4016 16.44C62.3589 16.352 62.2968 16.276 61.9942 16.26C61.7614 16.252 61.1988 16.24 60.7759 16.24V18.768H60.7798C61.3695 18.768 62.2192 18.748 62.4559 18.732C62.8671 18.704 62.968 18.556 63.0223 18.272C63.0378 18.208 63.0456 18.152 63.0572 18.108C63.0805 17.988 63.0999 17.92 63.0999 17.768V17.66H63.4064V17.768C63.4064 18.212 63.4258 19.008 63.4258 19.016V19.124L63.4297 19.116Z" fill="#D6A770"/>
<path d="M72 15.816H64.776V16.184H72V15.816Z" fill="#D6A770"/>
</g>
<defs>
<linearGradient id="paint0_linear_116_49" x1="59.3482" y1="-6.94" x2="23.2615" y2="17.2769" gradientUnits="userSpaceOnUse">
<stop stop-color="#D8A570"/>
<stop offset="0.28" stop-color="#D4A96D"/>
<stop offset="0.4" stop-color="#EEDBA7"/>
<stop offset="0.5" stop-color="#D4A96D"/>
<stop offset="0.71" stop-color="#D8A570"/>
<stop offset="0.88" stop-color="#EEDBA7"/>
<stop offset="1" stop-color="#E5BB7F"/>
</linearGradient>
<linearGradient id="paint1_linear_116_49" x1="53.7769" y1="-15.24" x2="17.6865" y2="8.97287" gradientUnits="userSpaceOnUse">
<stop stop-color="#D8A570"/>
<stop offset="0.28" stop-color="#D4A96D"/>
<stop offset="0.4" stop-color="#EEDBA7"/>
<stop offset="0.5" stop-color="#D4A96D"/>
<stop offset="0.71" stop-color="#D8A570"/>
<stop offset="0.88" stop-color="#EEDBA7"/>
<stop offset="1" stop-color="#E5BB7F"/>
</linearGradient>
<linearGradient id="paint2_linear_116_49" x1="65.3812" y1="2.05199" x2="29.2908" y2="26.2649" gradientUnits="userSpaceOnUse">
<stop stop-color="#D8A570"/>
<stop offset="0.28" stop-color="#D4A96D"/>
<stop offset="0.4" stop-color="#EEDBA7"/>
<stop offset="0.5" stop-color="#D4A96D"/>
<stop offset="0.71" stop-color="#D8A570"/>
<stop offset="0.88" stop-color="#EEDBA7"/>
<stop offset="1" stop-color="#E5BB7F"/>
</linearGradient>
<linearGradient id="paint3_linear_116_49" x1="68.644" y1="6.91599" x2="32.5573" y2="31.1329" gradientUnits="userSpaceOnUse">
<stop stop-color="#D8A570"/>
<stop offset="0.28" stop-color="#D4A96D"/>
<stop offset="0.4" stop-color="#EEDBA7"/>
<stop offset="0.5" stop-color="#D4A96D"/>
<stop offset="0.71" stop-color="#D8A570"/>
<stop offset="0.88" stop-color="#EEDBA7"/>
<stop offset="1" stop-color="#E5BB7F"/>
</linearGradient>
</defs>
</svg>
