<svg width="1080" height="475" viewBox="0 0 1080 475" fill="none" xmlns="http://www.w3.org/2000/svg">
<path d="M196.272 141.752C180.654 148.289 163.485 166.732 158.063 189.899C151.195 219.244 179.773 231.655 182.117 227.591C184.876 222.81 176.996 221.193 175.374 205.967C173.278 186.3 182.429 164.326 193.947 154.684C196.087 152.893 195.985 155.386 195.985 159.998C195.985 168.245 195.529 242.278 195.529 257.729C195.529 278.636 194.665 285.238 193.112 291.761C191.54 298.372 189.011 302.839 190.926 304.56C193.067 306.485 202.208 301.906 207.499 294.528C213.844 285.679 216.065 275.052 216.464 263.511C216.946 249.599 216.925 227.523 216.946 214.931C216.964 203.382 217.14 169.565 216.743 149.236C216.645 144.249 202.804 139.018 196.272 141.752Z" fill="url(#paint0_linear_192_36)"/>
<path d="M753.079 239.904C752.573 250.812 750.154 259.339 747.152 265.353C741.34 276.997 729.281 280.612 724.161 263.875C721.37 254.751 721.24 239.513 723.246 226.782C725.288 213.812 730.99 204.016 740.432 204.9C749.745 205.773 754.104 217.752 753.079 239.904ZM596.076 307.583C595.95 325.709 593.092 341.601 586.964 346.217C578.273 352.762 566.592 347.852 569.01 334.626C571.151 322.922 581.273 310.969 596.1 296.365C596.1 296.365 596.131 299.695 596.076 307.583ZM593.702 239.797C593.171 249.733 590.591 259.714 587.776 265.353C581.965 276.997 569.818 280.636 564.784 263.875C561.342 252.422 562.167 237.6 563.87 228.26C566.08 216.143 571.436 204.901 581.056 204.901C590.409 204.901 595.021 215.144 593.702 239.797ZM502.752 239.646C502.182 250.168 500.125 258.964 496.825 265.353C490.855 276.917 479.043 280.583 473.834 263.875C470.078 251.825 471.357 235.397 472.919 226.523C475.237 213.353 481.043 204.016 490.105 204.901C499.414 205.809 503.94 217.752 502.752 239.646ZM919.556 251.936C917.28 251.936 916.241 254.279 915.382 258.22C912.402 271.926 909.27 275.02 905.231 275.02C900.718 275.02 896.664 268.234 895.621 254.648C894.802 243.966 894.934 224.3 895.981 204.737C896.195 200.718 895.085 196.741 884.285 192.825C879.639 191.14 872.884 188.66 869.521 196.764C860.018 219.661 856.3 237.839 855.426 245.222C855.38 245.605 854.911 245.684 854.828 244.79C854.271 238.876 853.025 228.127 852.87 205.547C852.84 201.142 851.905 197.391 847.034 194.321C843.873 192.329 834.275 188.805 830.819 192.997C827.825 196.425 824.357 205.652 820.754 216.588C817.825 225.477 815.786 231.49 815.786 231.49C815.786 231.49 815.825 207.506 815.859 198.409C815.875 194.977 813.517 193.833 812.806 193.626C809.605 192.7 803.299 191.15 800.623 191.15C797.32 191.15 796.511 192.992 796.511 195.677C796.511 196.03 795.99 227.254 795.99 249.089C795.99 250.038 795.991 251.072 795.995 252.172C794.168 262.207 788.244 275.83 781.802 275.83C775.352 275.83 772.308 270.135 772.308 244.105C772.308 228.921 772.765 222.317 772.989 211.334C773.12 205.008 773.371 200.15 773.357 199.047C773.309 195.667 767.454 193.963 764.729 193.333C761.992 192.7 759.613 192.452 757.755 192.558C755.126 192.707 753.266 194.428 753.266 196.796C753.266 198.067 753.28 200.481 753.28 200.481C749.894 195.168 744.447 191.471 740.823 190.399C731.063 187.506 720.878 190.071 713.195 200.802C707.089 209.328 703.409 218.986 701.96 232.862C700.901 243.006 701.247 253.292 703.129 261.992C700.855 271.808 696.632 275.83 692.009 275.83C685.296 275.83 680.43 264.893 680.995 245.977C681.368 233.536 683.862 224.805 686.588 212.173C687.75 206.789 686.806 203.97 684.437 201.268C682.265 198.79 677.636 197.524 670.982 199.081C666.242 200.191 659.466 201.385 653.266 202.302C653.266 202.302 653.64 200.812 653.947 198.185C655.559 184.407 640.562 185.525 635.778 189.926C632.921 192.553 630.977 195.651 630.239 201.223C629.069 210.064 636.292 214.234 636.292 214.234C633.922 225.065 628.113 239.211 622.116 249.439C618.904 254.919 616.446 258.979 613.274 263.296C613.262 261.689 613.253 260.081 613.248 258.481C613.176 235.713 613.479 217.795 613.613 211.335C613.743 205.009 613.997 200.28 613.983 199.178C613.947 196.706 612.501 195.771 609.493 194.589C606.832 193.543 603.687 192.819 600.425 192.567C596.307 192.248 593.826 194.427 593.891 197.005C593.903 197.492 593.903 200.481 593.903 200.481C590.517 195.168 585.07 191.471 581.447 190.399C571.686 187.507 561.501 190.071 553.819 200.802C547.714 209.328 543.716 221.294 542.584 232.756C541.528 243.439 541.723 252.516 543.162 260.164C541.61 267.822 537.147 275.83 532.102 275.83C525.652 275.83 521.981 270.135 521.981 244.105C521.981 228.921 522.438 222.317 522.663 211.335C522.793 205.009 523.044 200.15 523.03 199.049C522.982 195.668 517.127 193.964 514.402 193.333C511.551 192.675 509.09 192.433 507.2 192.573C504.706 192.758 502.953 194.987 502.953 196.649V200.481C499.567 195.168 494.12 191.471 490.496 190.399C480.736 187.507 470.607 190.112 462.868 200.802C457.822 207.771 453.736 215.499 451.633 232.604C451.026 237.547 450.757 242.177 450.792 246.503C448.78 258.79 439.891 272.95 432.62 272.95C428.366 272.95 424.314 264.712 424.314 247.154C424.314 223.767 425.764 190.469 426.009 187.26C426.009 187.26 435.195 187.104 436.974 187.083C441.557 187.033 445.707 187.141 451.81 186.83C454.871 186.674 457.82 175.706 454.661 174.349C453.229 173.735 443.108 173.196 439.096 173.111C435.723 173.035 426.331 172.341 426.331 172.341C426.331 172.341 427.174 150.239 427.37 147.904C427.536 145.958 425.014 144.956 423.568 144.348C420.051 142.863 416.905 142.152 413.175 141.385C408.023 140.324 405.685 141.362 405.228 145.703C404.541 152.292 404.185 171.59 404.185 171.59C400.404 171.59 387.488 170.852 383.705 170.852C380.191 170.852 376.398 185.94 381.257 186.125C386.846 186.341 396.588 186.529 403.046 186.723C403.046 186.723 402.758 220.57 402.758 231.021C402.758 232.133 402.763 233.203 402.77 234.242C399.215 252.735 386.697 262.725 386.697 262.725C389.385 250.49 383.893 241.302 374.001 233.525C370.357 230.659 363.162 225.234 355.112 219.288C355.112 219.288 359.775 214.701 363.909 205.471C366.839 198.933 366.965 191.453 359.775 189.803C347.893 187.076 338.096 195.787 335.174 205.086C332.91 212.292 334.118 217.636 338.553 223.19C338.877 223.595 339.228 224.01 339.59 224.427C336.908 229.588 333.224 236.536 330.103 241.924C321.442 256.884 314.899 268.717 309.954 268.717C306.001 268.717 306.054 256.703 306.054 245.454C306.054 235.758 306.771 221.179 307.344 206.086C307.534 201.094 305.033 198.25 300.842 195.675C298.295 194.11 292.86 191.033 289.713 191.033C285.001 191.033 271.408 191.673 258.564 228.762C256.945 233.437 253.765 241.955 253.765 241.955L254.04 197.354C254.04 196.308 253.481 195.297 252.204 194.606C250.04 193.432 244.259 191.033 239.119 191.033C236.671 191.033 235.448 192.17 235.448 194.437L235 264.216C235 269.519 235.138 275.704 235.663 278.408C236.187 281.117 237.034 283.32 238.083 284.631C239.132 285.94 240.345 286.938 242.343 287.35C244.203 287.732 254.392 289.038 254.921 285.151C255.556 280.493 255.58 275.455 260.93 256.665C269.259 227.411 280.116 213.138 285.222 208.069C286.115 207.183 287.134 207.13 287.085 208.58C286.867 214.994 286.101 231.021 285.585 244.635C284.202 281.071 290.842 287.825 300.33 287.825C307.589 287.825 317.822 280.625 328.791 262.397C335.63 251.038 342.27 239.901 347.04 231.874C350.365 234.947 354.096 238.253 357.824 241.785C366.488 249.994 369.333 257.795 367.445 265.195C366.002 270.852 360.565 276.682 350.89 271.016C348.07 269.362 346.866 268.085 344.031 266.221C342.507 265.22 340.181 264.92 338.787 265.97C335.164 268.696 333.092 272.165 331.909 276.458C330.759 280.636 334.95 282.845 339.295 284.777C343.036 286.439 351.077 287.946 356.205 288.117C376.185 288.784 392.191 278.487 403.333 251.923C405.328 274.865 413.816 287.846 428.564 287.846C438.424 287.846 448.31 275.123 452.633 262.606C453.874 267.709 455.711 272.145 458.083 275.898C469.448 293.873 491.493 290.004 502.567 274.74C505.991 270.024 506.512 268.329 506.512 268.329C508.127 282.742 519.753 287.777 526.41 287.777C533.865 287.777 541.563 284.259 546.958 272.134C547.59 273.45 548.281 274.707 549.034 275.898C560.398 293.873 582.444 290.004 593.518 274.74C594.04 274.024 594.493 273.375 594.889 272.792L595.214 282.259C595.214 282.259 588.897 288.044 585.019 291.593C567.929 307.229 554.948 319.089 553.993 332.9C552.778 350.51 567.075 357.055 577.909 357.913C589.393 358.824 599.246 352.485 605.292 343.614C610.614 335.806 614.097 319 613.841 302.402C613.739 295.756 613.572 287.305 613.44 278.246C619.439 271.291 626.198 262.5 632.421 252.213C639.203 241.001 646.471 225.943 650.193 214.225C650.193 214.225 656.507 214.279 663.247 213.839C665.402 213.698 666.022 214.137 665.623 215.715C665.142 217.621 657.109 248.553 664.44 269.159C669.458 283.265 680.771 287.803 687.478 287.803C695.329 287.803 702.84 281.884 706.865 273.094C707.35 274.074 707.857 275.022 708.41 275.898C719.775 293.873 741.743 289.981 752.894 274.74C755.411 271.302 756.839 268.329 756.839 268.329C759.232 283.245 770.852 287.853 777.507 287.853C784.44 287.853 791.019 285.016 796.358 272.407C796.581 277.959 796.932 282.498 797.486 283.929C797.824 284.805 799.794 285.903 801.228 286.434C807.57 288.782 814.038 287.672 816.431 287.189C818.089 286.854 819.381 285.526 819.558 282.098C820.022 273.096 819.737 257.971 822.471 246.729C827.06 227.865 831.34 220.547 833.371 216.924C834.507 214.895 835.79 214.56 835.836 216.708C835.931 221.054 836.148 233.818 837.926 250.968C839.231 263.58 840.976 271.035 842.316 273.394C846.141 280.142 850.865 280.461 854.712 280.461C857.159 280.461 862.277 279.786 861.819 275.492C861.596 273.4 861.987 260.466 866.511 241.881C869.465 229.744 874.391 218.779 876.167 214.768C876.822 213.29 877.127 214.455 877.117 214.682C876.742 223.04 875.903 250.379 879.314 265.331C883.937 285.587 897.312 287.853 901.973 287.853C911.924 287.853 920.061 280.297 922.803 260.415C923.463 255.631 922.485 251.936 919.556 251.936Z" fill="url(#paint1_linear_192_36)"/>
<defs>
<linearGradient id="paint0_linear_192_36" x1="217" y1="141" x2="147.032" y2="145.657" gradientUnits="userSpaceOnUse">
<stop stop-color="#840BFC"/>
<stop offset="0.261853" stop-color="#FD02BE"/>
<stop offset="0.331731" stop-color="#FE0280"/>
<stop offset="0.495192" stop-color="#FF0E57"/>
<stop offset="0.653846" stop-color="#FF4426"/>
<stop offset="0.802885" stop-color="#FE8703"/>
<stop offset="1" stop-color="#FFC900"/>
</linearGradient>
<linearGradient id="paint1_linear_192_36" x1="923" y1="141" x2="318.313" y2="489.777" gradientUnits="userSpaceOnUse">
<stop stop-color="#840BFC"/>
<stop offset="0.261853" stop-color="#FD02BE"/>
<stop offset="0.331731" stop-color="#FE0280"/>
<stop offset="0.495192" stop-color="#FF0E57"/>
<stop offset="0.653846" stop-color="#FF4426"/>
<stop offset="0.802885" stop-color="#FE8703"/>
<stop offset="1" stop-color="#FFC900"/>
</linearGradient>
</defs>
</svg>
