<svg width="3172" height="1784" viewBox="0 0 3172 1784" fill="none" xmlns="http://www.w3.org/2000/svg">
<g clip-path="url(#clip0_199_182)">
<path d="M3172 1784H0V0H3172V1784ZM1531.17 864.742C1515.25 864.742 1505.21 875 1505.21 891.534C1505.22 908.068 1515.21 918.29 1531.17 918.29C1547.09 918.29 1557.12 908.068 1557.12 891.534C1557.12 875 1547.09 864.742 1531.17 864.742ZM1377.53 865.639V917.394H1392.67V865.639H1377.53ZM1399.81 865.639V917.394H1414.08V890.135H1414.37L1434.4 917.394H1446V865.639H1431.72V892.466H1431.43L1411.55 865.639H1399.81ZM1453.14 865.639V917.394H1467.41V890.135H1467.7L1487.72 917.394H1499.33V865.639H1485.05V892.466H1484.76L1464.88 865.639H1453.14ZM1559.08 865.639L1572.36 917.394H1586.64L1594.31 887.768H1594.6L1602.27 917.394H1616.55L1629.83 865.639H1614.19L1608.27 898.349H1607.98L1600.31 865.639H1588.6L1580.93 898.349H1580.64L1574.71 865.639H1559.08ZM1634.83 865.639V917.394H1649.96V897.38H1668.09V917.394H1683.23V865.639H1668.09V885.293H1649.96V865.639H1634.83ZM1690.37 865.639V917.394H1705.5V865.639H1690.37ZM1710.68 865.639V877.726H1724.24V917.394H1739.38V877.726H1752.94V865.639H1710.68ZM1758.12 865.639V917.394H1794.46V905.307H1773.25V896.985H1793.14V886.082H1773.25V877.726H1794.46V865.639H1758.12ZM1531.17 876.864C1537.48 876.864 1541.7 882.568 1541.7 891.534C1541.7 900.465 1537.52 906.167 1531.17 906.167C1524.81 906.167 1520.64 900.465 1520.64 891.534C1520.64 882.568 1524.85 876.864 1531.17 876.864Z" fill="black"/>
</g>
<defs>
<clipPath id="clip0_199_182">
<rect width="3172" height="1784" fill="white"/>
</clipPath>
</defs>
</svg>
