<svg width="3172" height="1784" viewBox="0 0 3172 1784" fill="none" xmlns="http://www.w3.org/2000/svg">
<g clip-path="url(#clip0_199_182)">
<path d="M3172 1784H0V0H3172V1784ZM1503.99 931.695C1517.74 968.098 1534.32 996.892 1542.06 996.085C1555.22 994.678 1563.62 975.265 1576.18 970.313C1589.32 965.128 1606.25 986.91 1606.86 987.668C1606.61 986.804 1597.66 959.5 1579.21 960.438C1559.32 961.454 1550.32 983.342 1543.09 979.173C1538.9 976.775 1532.58 967.212 1525.88 953.61C1523.53 948.79 1520.42 944.438 1516.73 940.737C1513.02 937.037 1508.72 933.962 1503.99 931.695ZM1670.31 932.128C1661.87 936.193 1655.12 943.15 1651.23 951.854C1643.27 969.677 1635.94 981.743 1632.65 982.107C1616.96 983.801 1604.17 917.171 1557.79 960.114C1610.59 934.968 1602.78 988.805 1632.5 995.476C1640.26 997.194 1656.83 968.596 1670.33 932.128H1670.31ZM1670.33 932.128H1670.34V932.102C1670.33 932.11 1670.33 932.119 1670.33 932.128ZM1605.68 871.55C1603.33 871.602 1601.81 871.603 1599.39 871.603H1592.13L1592.31 872.488V873.661H1594C1594.66 873.661 1595.19 873.713 1595.55 873.765L1583.62 903.914L1574.64 881.479L1574.26 880.54C1573.3 878.221 1572.27 875.615 1571.74 873.869C1572.5 873.713 1573 873.713 1573.81 873.713H1575.38V871.603H1574.64C1573.53 871.629 1571.89 871.628 1570.22 871.628C1568.55 871.628 1566.94 871.602 1565.8 871.576H1565.06V873.713H1566.46C1567.31 873.713 1567.74 873.739 1568.35 873.869C1568.67 873.956 1568.87 874.086 1568.96 874.26C1570.63 878.194 1572.32 882.234 1574.39 887.341L1584.78 912.931L1584.96 913.373H1586.07L1586.25 912.931L1595.12 890.989L1603.99 912.931L1604.16 913.373H1605.28L1605.45 912.931L1621.1 874.234C1621.25 874 1621.48 873.869 1621.78 873.843L1622.51 873.791C1623.32 873.713 1623.78 873.687 1624.81 873.687H1625.5V871.576H1625.67L1625.5 871.55V871.576H1625.02C1623.9 871.602 1621.45 871.603 1618.57 871.603C1615.69 871.603 1613.21 871.576 1612.15 871.55H1611.42V873.687H1612.1C1613.11 873.687 1613.49 873.739 1614.27 873.791C1614.43 873.791 1614.58 873.817 1614.8 873.817L1602.9 903.914L1596.43 887.915L1602.04 874.208C1602.14 874.078 1602.29 873.922 1602.77 873.817C1603.71 873.661 1604.44 873.661 1605.73 873.661H1606.41V871.55H1605.68ZM1473.92 873.636H1474.6C1475.73 873.636 1475.84 873.662 1476.24 873.792H1476.42C1477.43 874.026 1478.06 874.313 1478.54 874.834C1479.25 875.563 1479.53 876.658 1479.53 876.971V896.28C1479.53 902.977 1479.48 906.365 1479.37 909.622H1479.25L1478.57 909.674C1477.76 909.778 1477.3 909.805 1476.27 909.805H1475.58V911.915H1476.32C1477.45 911.889 1479.05 911.889 1480.74 911.889C1482.43 911.889 1484.02 911.915 1485.14 911.941H1485.87V909.805H1485.19C1484.18 909.805 1483.77 909.752 1482.99 909.7C1482.76 909.674 1482.51 909.648 1482.21 909.648H1482.1C1481.95 906.131 1481.95 902.665 1481.95 896.307V879.343L1507.99 913.088L1508.21 913.349H1509.4V887.186C1509.4 880.854 1509.4 877.362 1509.55 873.844H1509.68L1510.36 873.792C1511.17 873.714 1511.62 873.688 1512.66 873.688H1513.34V871.551H1513.37V871.499H1512.64C1510.29 871.551 1509.81 871.551 1508.21 871.551C1506.62 871.551 1506.12 871.551 1503.79 871.499H1503.06V873.636H1503.74C1504.78 873.636 1505.23 873.688 1506.04 873.74L1506.77 873.792H1506.87C1507 877.623 1507.03 881.245 1507.03 887.134V901.57L1484.23 871.812L1484 871.551H1481.35C1478.92 871.551 1477.02 871.551 1474.65 871.499H1473.92V873.636ZM1429.02 873.687H1429.71C1431.17 873.687 1433.07 874.129 1433.6 874.833C1434.28 875.719 1434.63 876.736 1434.63 877.022V896.331C1434.63 903.054 1434.58 906.416 1434.48 909.673H1434.38L1433.65 909.726C1432.79 909.83 1432.38 909.855 1431.35 909.855H1430.67V911.966H1431.4C1433.75 911.914 1434.23 911.914 1435.82 911.914C1437.41 911.914 1437.87 911.914 1440.25 911.966H1440.98V909.829H1440.29C1439.26 909.829 1438.8 909.751 1438 909.699L1437.26 909.647H1437.16C1437.01 906.13 1437.01 902.664 1437.01 896.306V879.342L1463.04 913.087L1463.27 913.348H1464.46V887.185C1464.46 880.853 1464.46 877.361 1464.61 873.843H1464.74C1465.75 873.687 1466.45 873.687 1467.74 873.687H1468.43V871.55H1467.74C1465.39 871.602 1464.91 871.603 1463.32 871.603C1461.73 871.603 1461.27 871.602 1458.9 871.55H1458.16V873.687H1459.3C1460.31 873.687 1460.92 873.686 1461.83 873.843H1461.98C1462.08 877.1 1462.13 880.488 1462.13 887.185V901.621L1439.33 871.862L1439.11 871.603H1436.45C1434.03 871.603 1432.13 871.602 1429.76 871.55H1429.02V873.687ZM1539.91 870.315C1528.44 870.315 1519.47 879.723 1519.47 891.735C1519.47 903.748 1527.86 912.713 1539.91 912.713C1551.97 912.713 1560.61 903.306 1560.61 891.293C1560.61 879.28 1551.89 870.315 1539.91 870.315ZM1765.17 912.203L1765.2 912.15H1765.17V912.203ZM1763.71 871.474C1760.4 871.604 1752.03 871.63 1745.84 871.63C1742.2 871.63 1739.29 871.631 1738.41 871.604H1737.68V873.741H1738.36C1739.57 873.741 1740.15 873.767 1741.32 873.897H1741.72V909.728C1741.7 909.728 1741.67 909.751 1741.67 909.753H1741.29C1740.15 909.857 1739.57 909.884 1738.33 909.884H1737.65V911.994H1738.38C1739.27 911.968 1742.3 911.968 1746.07 911.968C1752.46 911.968 1761.16 912.02 1764.44 912.15H1765.17V911.499C1765.17 911.438 1765.05 906.259 1765.05 903.369V902.665H1763.05V903.369C1763.05 904.359 1762.93 904.802 1762.77 905.584C1762.7 905.871 1762.65 906.235 1762.55 906.652C1762.19 908.502 1761.53 909.467 1758.86 909.649C1757.31 909.754 1751.78 909.884 1747.94 909.884H1747.91V893.415C1750.67 893.415 1754.33 893.493 1755.85 893.545C1757.82 893.649 1758.22 894.145 1758.5 894.718C1758.91 895.499 1759.26 896.255 1759.41 897.74L1759.49 898.392H1761.43V897.61C1761.31 895.317 1761.31 894.3 1761.31 892.294C1761.31 890.288 1761.31 889.271 1761.46 887.03V886.249H1759.39V886.926C1759.34 888.176 1759.06 889.245 1758.58 889.767L1758.5 889.818C1757.9 890.522 1757.49 891.017 1755.82 891.043C1754.31 891.121 1750.64 891.174 1747.89 891.174V873.871H1747.91C1751.7 873.871 1755.57 873.975 1757.11 874.105C1759.79 874.34 1761.46 875.408 1761.81 877.128C1761.91 877.467 1761.96 877.806 1762.04 878.093C1762.22 878.927 1762.34 879.474 1762.34 880.49V881.193H1764.34V880.49C1764.34 877.578 1764.47 872.254 1764.47 872.229V871.474H1763.71ZM1422.03 871.603H1421.3C1418.89 871.655 1417.38 871.654 1414.88 871.654C1412.37 871.654 1410.86 871.655 1408.43 871.603H1407.7V873.739H1409.24C1410.12 873.739 1410.83 873.739 1411.69 873.896H1411.82V909.726C1411.79 909.726 1411.77 909.749 1411.77 909.751H1411.39C1410.23 909.855 1409.67 909.882 1408.43 909.882H1407.75V911.992H1408.48C1410.91 911.94 1412.45 911.94 1414.93 911.94C1417.4 911.94 1418.92 911.94 1421.35 911.992H1422.08V909.855H1421.4C1420.18 909.855 1419.6 909.829 1418.44 909.699H1418.01V873.869C1418.04 873.843 1418.11 873.843 1418.16 873.843C1418.72 873.686 1419.35 873.687 1420.21 873.687H1422.13V871.55H1422.08L1422.03 871.603ZM1630.9 873.687H1631.58C1632.79 873.687 1633.37 873.712 1634.54 873.843H1634.97V909.673C1634.92 909.673 1634.89 909.698 1634.89 909.699H1634.51C1633.35 909.803 1632.79 909.829 1631.55 909.829H1630.87V911.94H1631.6C1632.72 911.914 1635.17 911.914 1638.02 911.914C1640.88 911.914 1643.36 911.94 1644.47 911.966H1645.2V909.829H1644.52C1643.31 909.829 1642.73 909.803 1641.56 909.673H1641.13V892.631C1643 892.579 1646.42 892.579 1650.38 892.579C1654.35 892.579 1657.76 892.605 1659.63 892.631V909.673C1659.58 909.673 1659.56 909.699 1659.56 909.699H1659.18C1658.04 909.803 1657.46 909.829 1656.22 909.829H1655.54V911.94H1656.27C1657.41 911.914 1659.86 911.914 1662.72 911.914C1665.57 911.914 1668.03 911.94 1669.16 911.966H1669.9V909.829H1669.21C1668 909.829 1667.42 909.803 1666.26 909.673H1665.83V873.843C1665.87 873.819 1665.9 873.817 1665.9 873.817H1666.28C1667.42 873.713 1668 873.687 1669.24 873.687H1669.92V871.576H1669.95L1669.92 871.55V871.576H1669.21C1668.08 871.602 1665.62 871.603 1662.77 871.603C1659.91 871.603 1657.46 871.576 1656.32 871.55H1655.59V873.687H1656.27C1657.49 873.687 1658.07 873.712 1659.23 873.843H1659.66V890.312C1657.79 890.364 1654.38 890.364 1650.41 890.364C1646.44 890.364 1643.03 890.338 1641.16 890.312V873.843C1641.18 873.819 1641.21 873.817 1641.21 873.817H1641.59C1642.75 873.713 1643.31 873.687 1644.55 873.687H1645.23V871.576H1644.5C1643.36 871.602 1640.88 871.603 1638.05 871.603C1635.22 871.603 1632.74 871.576 1631.63 871.55H1630.9V873.687ZM1677.92 873.687H1678.61C1679.82 873.687 1680.4 873.712 1681.56 873.843H1681.99V909.673C1681.94 909.673 1681.92 909.699 1681.92 909.699H1681.54C1680.38 909.803 1679.82 909.829 1678.58 909.829H1677.9V911.94H1678.63C1679.75 911.914 1682.2 911.914 1685.05 911.914C1687.91 911.914 1690.38 911.94 1691.5 911.966H1692.23V909.829H1691.55C1690.33 909.829 1689.75 909.803 1688.59 909.673H1688.16V873.843C1688.19 873.817 1688.21 873.817 1688.21 873.817H1688.59C1689.75 873.713 1690.31 873.687 1691.55 873.687H1692.23V871.576H1692.26L1692.23 871.55V871.576H1691.52C1690.39 871.602 1687.91 871.603 1685.08 871.603C1682.25 871.603 1679.77 871.576 1678.66 871.55H1677.92V873.687ZM1697.95 871.958V872.271C1698.18 874.512 1698.18 878.29 1698.18 880.349V881.052H1699.95L1700.05 880.479C1700.05 880.451 1700.41 878.41 1700.68 876.961C1700.93 875.71 1701.67 874.173 1704.88 873.912C1706.39 873.808 1707.96 873.756 1711.8 873.756H1711.83V909.69H1711.4C1710.26 909.795 1709.68 909.82 1708.44 909.82H1707.76V911.931H1708.49C1709.63 911.905 1712.08 911.905 1714.94 911.905C1717.79 911.905 1720.24 911.931 1721.38 911.957H1722.11V909.82H1721.43C1720.22 909.82 1719.64 909.794 1718.47 909.664H1718.04V873.782H1718.07C1721.94 873.782 1723.48 873.808 1725 873.938C1728.21 874.199 1728.94 875.736 1729.19 877.039C1729.47 878.49 1729.82 880.532 1729.82 880.557L1729.92 881.13H1731.69V880.427C1731.69 878.394 1731.72 874.616 1731.95 872.349V872.036L1731.77 871.958H1731.87L1731.31 871.385H1731.01C1725.83 871.567 1720.29 871.566 1714.91 871.566C1709.53 871.566 1703.99 871.567 1698.81 871.385H1698.51L1697.95 871.958ZM1539.41 872.583C1548.38 872.583 1553.94 880.166 1553.94 892.361C1553.94 901.065 1549.77 910.393 1540.62 910.394C1531.47 910.394 1526.21 902.654 1526.21 890.693C1526.21 881.703 1530.76 872.583 1539.41 872.583ZM1351.97 893.045H1399.03V890.647H1351.97V893.045ZM1773.94 893.045H1821V890.647H1773.94V893.045ZM1660.13 788.349C1613.93 784.414 1593.61 852.738 1522.21 818.472C1590.5 867.253 1635.32 777.926 1667.59 803.515C1675.3 809.69 1679.02 820.426 1679.9 833.716C1680.48 841.976 1683.94 849.768 1689.63 855.631C1693.65 819.879 1687.41 790.694 1660.13 788.349ZM1592.38 808.902C1548.41 818.622 1545.62 786.336 1512.62 787.69C1490.45 788.629 1482.29 807.703 1482.31 833.996C1482.31 839.807 1482.69 845.879 1483.42 852.237C1489.77 845.671 1493.56 836.993 1494.44 827.769C1495.35 817.893 1497.98 809.554 1502.71 803.69H1502.73C1521.21 780.837 1553.49 838.608 1592.38 808.902Z" fill="black"/>
</g>
<defs>
<clipPath id="clip0_199_182">
<rect width="3172" height="1784" fill="white"/>
</clipPath>
</defs>
</svg>
