<svg width="1080" height="475" viewBox="0 0 1080 475" fill="none" xmlns="http://www.w3.org/2000/svg">
<g clip-path="url(#clip0_192_36)">
<path d="M1080 0H0V474.71H1080V0Z" fill="#005BFF"/>
<path d="M622.802 155.539C559.532 155.539 508.242 192.159 508.242 237.349C508.242 282.539 559.532 319.159 622.802 319.159C686.072 319.159 737.362 282.529 737.362 237.349C737.362 192.169 686.072 155.539 622.802 155.539ZM622.802 280.989C579.112 280.989 546.412 257.959 546.412 237.349C546.412 216.739 579.112 193.699 622.802 193.699C666.492 193.699 699.192 216.739 699.192 237.349C699.192 257.959 666.602 280.989 622.802 280.989Z" fill="white"/>
<path d="M246.87 155.539C201.69 155.509 165.04 192.119 165 237.299C164.97 282.479 201.58 319.129 246.76 319.169C291.94 319.189 328.59 282.589 328.63 237.409V237.309C328.63 192.149 292.02 155.549 246.87 155.549V155.539ZM290.48 237.299C290.48 261.399 270.96 280.939 246.86 280.969C222.75 280.999 203.17 261.469 203.14 237.349C203.11 213.239 222.64 193.659 246.76 193.639C270.87 193.609 290.45 213.139 290.48 237.249V237.299Z" fill="white"/>
<path d="M372.782 159.209C360.942 159.209 350.922 169.979 353.372 182.239C355.172 191.239 363.602 197.379 372.782 197.379H426.052L343.152 306.759C340.422 310.339 342.992 315.499 347.492 315.499H477.542C486.702 315.499 495.152 309.349 496.932 300.359C499.402 288.099 490.072 277.329 478.252 277.329H413.342L496.182 168.039C498.922 164.419 496.352 159.209 491.792 159.209H372.772H372.782Z" fill="white"/>
<path d="M915.003 178.299V309.979C915.003 311.209 914.583 312.409 913.823 313.369C911.943 315.779 908.473 316.199 906.073 314.309L802.833 232.349V296.409C802.833 306.949 794.293 315.499 783.733 315.499C773.173 315.499 764.633 306.949 764.633 296.409V164.719C764.633 163.449 765.063 162.209 765.873 161.219C767.783 158.879 771.223 158.529 773.573 160.439L876.803 242.359V178.299C876.803 167.749 885.353 159.199 895.903 159.199C906.453 159.199 915.003 167.749 915.003 178.299Z" fill="white"/>
</g>
<defs>
<clipPath id="clip0_192_36">
<rect width="1080" height="474.71" fill="white"/>
</clipPath>
</defs>
</svg>
