<svg width="1080" height="475" viewBox="0 0 1080 475" fill="none" xmlns="http://www.w3.org/2000/svg">
<path d="M622.802 155C559.532 155 508.242 191.62 508.242 236.81C508.242 282 559.532 318.62 622.802 318.62C686.072 318.62 737.362 281.99 737.362 236.81C737.362 191.63 686.072 155 622.802 155ZM622.802 280.45C579.112 280.45 546.412 257.42 546.412 236.81C546.412 216.2 579.112 193.16 622.802 193.16C666.492 193.16 699.192 216.2 699.192 236.81C699.192 257.42 666.602 280.45 622.802 280.45Z" fill="#359DFF"/>
<path d="M246.87 155C201.69 154.97 165.04 191.58 165 236.76C164.97 281.94 201.58 318.59 246.76 318.63C291.94 318.65 328.59 282.05 328.63 236.87V236.77C328.63 191.61 292.02 155.01 246.87 155.01V155ZM290.48 236.76C290.48 260.86 270.96 280.4 246.86 280.43C222.75 280.46 203.17 260.93 203.14 236.81C203.11 212.7 222.64 193.12 246.76 193.1C270.87 193.07 290.45 212.6 290.48 236.71V236.76Z" fill="#359DFF"/>
<path d="M372.782 158.67C360.942 158.67 350.922 169.44 353.372 181.7C355.172 190.7 363.602 196.84 372.782 196.84H426.052L343.152 306.22C340.422 309.8 342.992 314.96 347.492 314.96H477.542C486.702 314.96 495.152 308.81 496.932 299.82C499.402 287.56 490.072 276.79 478.252 276.79H413.342L496.182 167.5C498.922 163.88 496.352 158.67 491.792 158.67H372.772H372.782Z" fill="#359DFF"/>
<path d="M915.003 177.76V309.44C915.003 310.67 914.583 311.87 913.823 312.83C911.943 315.24 908.473 315.66 906.073 313.77L802.833 231.81V295.87C802.833 306.41 794.293 314.96 783.733 314.96C773.173 314.96 764.633 306.41 764.633 295.87V164.18C764.633 162.91 765.063 161.67 765.873 160.68C767.783 158.34 771.223 157.99 773.573 159.9L876.803 241.82V177.76C876.803 167.21 885.353 158.66 895.903 158.66C906.453 158.66 915.003 167.21 915.003 177.76Z" fill="#359DFF"/>
</svg>
