<svg width="1080" height="475" viewBox="0 0 1080 475" fill="none" xmlns="http://www.w3.org/2000/svg">
<g clip-path="url(#clip0_192_36)">
<path d="M479.005 212.43C470.136 212.43 462.2 215.079 455.509 219.441V178.779H436.682V253.715C436.682 276.461 455.665 294.844 478.849 294.844C502.034 294.844 521.328 276.617 521.328 253.559C521.328 230.502 502.656 212.43 479.005 212.43ZM381.599 213.676C360.749 215.702 343.633 233.306 343.633 254.338C343.633 276.461 363.083 295.156 385.8 295.156C408.518 295.156 427.968 276.617 427.968 254.338C427.968 244.835 424.545 236.266 418.788 229.411L377.242 178.935H352.969L381.599 213.676ZM236.424 259.012L219.153 215.39H205.927L188.811 259.012L171.539 215.39H151L181.186 292.352H194.412L212.618 246.549L230.823 292.352H244.049L274.08 215.39H253.696L236.424 259.012ZM572.365 212.586C548.869 212.586 529.886 230.346 529.886 252.936C529.886 275.37 546.535 295.156 571.276 295.156C586.058 295.156 598.039 288.145 606.597 276.305L591.97 264.621C587.769 272.099 579.522 276.461 571.431 276.461C560.85 276.461 550.425 269.138 549.647 258.389H611.109V252.78C610.954 229.1 594.927 212.586 572.365 212.586ZM811.989 212.586C788.493 212.586 769.666 230.346 769.666 253.871C769.666 275.993 786.315 295 810.9 295C825.682 295 837.663 287.989 846.221 276.149L833.306 265.399C828.794 272.254 820.547 276.305 810.588 276.305C800.786 276.305 790.049 268.983 789.271 258.233H850.422V251.846C850.422 229.1 834.551 212.586 811.989 212.586ZM877.652 237.824C877.652 232.995 884.343 229.256 893.056 229.256C901.77 229.256 911.417 233.462 917.641 240.317L929 226.763C918.108 217.415 907.216 212.586 893.523 212.586C876.407 212.586 858.824 220.22 858.824 237.824C858.824 259.479 877.963 261.037 893.523 262.284C902.237 262.907 910.017 263.53 910.017 269.138C910.017 275.214 901.148 278.019 893.523 278.019C883.565 278.019 874.073 273.501 867.694 265.867L855.557 278.486C865.204 290.015 879.208 295 892.901 295C910.017 295 928.844 287.055 928.844 268.827C928.844 248.262 909.55 246.237 894.768 244.835C885.276 243.744 877.652 242.965 877.652 237.824ZM639.428 232.839V215.39H620.601V292.196H639.428V259.635C641.918 241.563 656.7 234.241 673.816 234.241V215.39H671.949C657.478 215.39 646.897 220.531 639.428 232.839ZM699.023 232.839V215.39H680.196V292.196H699.023V259.635C701.513 239.226 719.562 234.241 733.411 234.241V215.39H731.388C717.073 215.39 706.492 220.376 699.023 232.839ZM315.314 292.196H334.141V178.935H315.314V292.196ZM385.8 276.617C372.886 276.617 362.305 266.49 362.305 253.871C362.305 241.252 372.73 230.969 385.645 230.969C398.404 230.969 409.296 241.096 409.296 253.871C409.296 266.646 398.871 276.617 385.8 276.617ZM479.005 276.617C466.246 276.617 455.509 266.646 455.509 253.715C455.509 240.784 465.623 230.969 479.005 230.969C492.386 230.969 502.656 241.096 502.656 253.715C502.656 266.334 491.92 276.617 479.005 276.617ZM282.793 292.196H301.621V215.39H282.793V292.196ZM741.346 292.196H760.174V215.39H741.346V292.196ZM291.974 178C284.349 178 277.97 184.232 277.97 192.021C277.97 199.967 284.66 205.419 291.974 205.419C300.065 205.419 306.289 198.72 306.289 191.71C306.289 184.543 299.754 178 291.974 178ZM750.682 178C743.058 178 736.523 184.232 736.523 192.021C736.523 199.811 742.747 205.419 750.994 205.419C759.24 205.419 764.842 199.967 764.842 192.333C764.842 184.699 758.462 178 750.682 178ZM791.45 242.965C794.562 235.332 801.252 230.969 811.055 230.969C820.858 230.969 826.926 235.643 829.416 242.965H791.45ZM551.67 242.965C554.782 235.332 561.473 230.969 571.12 230.969C580.923 230.969 587.302 235.643 589.792 242.965C589.948 242.965 551.67 242.965 551.67 242.965Z" fill="#E313BF"/>
</g>
<defs>
<clipPath id="clip0_192_36">
<rect width="778" height="117" fill="white" transform="translate(151 178)"/>
</clipPath>
</defs>
</svg>
